<?xml version="1.0" encoding="UTF-8"?> <svg xmlns="http://www.w3.org/2000/svg" width="102" height="41" viewBox="0 0 102 41" fill="none"><g clip-path="url(#clip0_643_23824)"><path d="M54.0766 11.8877C54.0766 13.0905 53.1598 14.0595 52.0216 14.0595C50.8835 14.0595 49.9666 13.0905 49.9666 11.8877C49.9666 10.6848 50.8519 9.7158 52.0216 9.7158C53.1914 9.74922 54.0766 10.7182 54.0766 11.8877ZM45.6038 16.2648C45.6038 16.4652 45.6038 16.7994 45.6038 16.7994C45.6038 16.7994 44.6237 15.4628 42.5371 15.4628C39.091 15.4628 36.4038 18.2361 36.4038 22.0786C36.4038 25.8877 39.0594 28.6944 42.5371 28.6944C44.6553 28.6944 45.6038 27.3245 45.6038 27.3245V27.8925C45.6038 28.1598 45.7935 28.3603 46.0464 28.3603H48.6072V15.797C48.6072 15.797 46.2677 15.797 46.0464 15.797C45.7935 15.797 45.6038 16.0309 45.6038 16.2648ZM45.6038 24.3173C45.1295 25.0524 44.1811 25.6872 43.0429 25.6872C41.0196 25.6872 39.4704 24.3507 39.4704 22.0786C39.4704 19.8065 41.0196 18.47 43.0429 18.47C44.1495 18.47 45.1611 19.1383 45.6038 19.84V24.3173ZM50.5041 15.797H53.5392V28.3603H50.5041V15.797ZM95.8402 15.4628C93.7536 15.4628 92.7735 16.7994 92.7735 16.7994V9.74922H89.7385V28.3603C89.7385 28.3603 92.078 28.3603 92.2993 28.3603C92.5522 28.3603 92.7419 28.1264 92.7419 27.8925V27.3245C92.7419 27.3245 93.722 28.6944 95.8086 28.6944C99.2546 28.6944 101.942 25.8877 101.942 22.0786C101.942 18.2695 99.2546 15.4628 95.8402 15.4628ZM95.3344 25.6538C94.1646 25.6538 93.2478 25.019 92.7735 24.2839V19.8065C93.2478 19.1383 94.2594 18.4366 95.3344 18.4366C97.3577 18.4366 98.9069 19.7731 98.9069 22.0452C98.9069 24.3173 97.3577 25.6538 95.3344 25.6538ZM88.1577 20.9092V28.3937H85.1227V21.2767C85.1227 19.2051 84.4904 18.3698 82.7831 18.3698C81.8663 18.3698 80.9179 18.871 80.3172 19.6061V28.3603H77.2821V15.797H79.6849C79.9378 15.797 80.1275 16.0309 80.1275 16.2648V16.7994C81.0127 15.8304 82.1825 15.4628 83.3522 15.4628C84.6801 15.4628 85.7866 15.8638 86.6718 16.6657C87.7467 17.6013 88.1577 18.8041 88.1577 20.9092ZM69.9158 15.4628C67.8292 15.4628 66.8491 16.7994 66.8491 16.7994V9.74922H63.8141V28.3603C63.8141 28.3603 66.1536 28.3603 66.3749 28.3603C66.6278 28.3603 66.8175 28.1264 66.8175 27.8925V27.3245C66.8175 27.3245 67.7976 28.6944 69.8842 28.6944C73.3302 28.6944 76.0175 25.8877 76.0175 22.0786C76.0491 18.2695 73.3618 15.4628 69.9158 15.4628ZM69.41 25.6538C68.2402 25.6538 67.3234 25.019 66.8491 24.2839V19.8065C67.3234 19.1383 68.335 18.4366 69.41 18.4366C71.4333 18.4366 72.9825 19.7731 72.9825 22.0452C72.9825 24.3173 71.4333 25.6538 69.41 25.6538ZM61.19 15.4628C62.1069 15.4628 62.5811 15.6299 62.5811 15.6299V18.6037C62.5811 18.6037 60.0519 17.7015 58.4711 19.6061V28.3937H55.4361V15.797C55.4361 15.797 57.7756 15.797 57.9969 15.797C58.2498 15.797 58.4395 16.0309 58.4395 16.2648V16.7994C59.0086 16.0977 60.2416 15.4628 61.19 15.4628ZM29.6697 27.2242C29.5117 26.8233 29.3536 26.3889 29.1955 26.0214C28.9426 25.4199 28.6897 24.8519 28.4684 24.3173L28.4367 24.2839C26.2553 19.2719 23.9158 14.1932 21.4498 9.18119L21.355 8.98072C21.102 8.47952 20.8491 7.94491 20.5962 7.4103C20.28 6.80887 19.9639 6.17402 19.458 5.57259C18.4464 4.23606 16.9921 3.50098 15.4429 3.50098C13.8622 3.50098 12.4395 4.23606 11.3962 5.50576C10.922 6.10719 10.5742 6.74204 10.258 7.34348C10.0051 7.87809 9.7522 8.41269 9.49928 8.91389L9.40444 9.11437C6.97007 14.1263 4.59894 19.2051 2.41749 24.2171L2.38588 24.2839C2.16457 24.8185 1.91165 25.3865 1.65873 25.988C1.50066 26.3555 1.34258 26.7565 1.1845 27.1908C0.773508 28.4271 0.647047 29.5966 0.805123 30.7994C1.15289 33.3054 2.73365 35.4104 4.91509 36.346C5.73708 36.7135 6.59069 36.8806 7.47591 36.8806C7.72884 36.8806 8.04499 36.8472 8.29791 36.8138C9.34121 36.6801 10.4161 36.3126 11.4594 35.6777C12.7556 34.9092 13.9886 33.8066 15.3797 32.2028C16.7708 33.8066 18.0354 34.9092 19.3 35.6777C20.3433 36.3126 21.4182 36.6801 22.4615 36.8138C22.7144 36.8472 23.0306 36.8806 23.2835 36.8806C24.1687 36.8806 25.0539 36.7135 25.8443 36.346C28.0574 35.4104 29.6065 33.272 29.9543 30.7994C30.2072 29.63 30.0807 28.4605 29.6697 27.2242ZM15.4113 28.9617C13.7041 26.6896 12.5976 24.5512 12.2182 22.7469C12.0601 21.9784 12.0285 21.3101 12.1233 20.7087C12.1866 20.1741 12.3763 19.7063 12.6292 19.3053C13.2299 18.4032 14.2416 17.8352 15.4113 17.8352C16.5811 17.8352 17.6244 18.3698 18.1934 19.3053C18.4464 19.7063 18.6361 20.1741 18.6993 20.7087C18.7941 21.3101 18.7625 22.0118 18.6044 22.7469C18.2251 24.5178 17.1185 26.6562 15.4113 28.9617ZM28.0257 30.5321C27.8044 32.2696 26.6979 33.7732 25.1488 34.4415C24.39 34.7756 23.568 34.8758 22.746 34.7756C21.9556 34.6753 21.1653 34.408 20.3433 33.9068C19.2051 33.2386 18.067 32.2028 16.7391 30.6658C18.8257 27.9593 20.0904 25.4868 20.5646 23.2815C20.7859 22.2457 20.8175 21.3101 20.7227 20.4414C20.5962 19.6061 20.3117 18.8376 19.869 18.1693C18.889 16.6657 17.245 15.797 15.4113 15.797C13.5776 15.797 11.9336 16.6991 10.9536 18.1693C10.511 18.8376 10.2264 19.6061 10.1 20.4414C9.97351 21.3101 10.0051 22.2791 10.258 23.2815C10.7323 25.4868 12.0285 27.9927 14.0835 30.6992C12.7873 32.2362 11.6175 33.272 10.4794 33.9403C9.65736 34.4415 8.86698 34.7088 8.0766 34.809C7.22299 34.9092 6.401 34.7756 5.67385 34.4749C4.12471 33.8066 3.01818 32.303 2.79688 30.5655C2.70203 29.7302 2.76526 28.8949 3.08141 27.9593C3.17626 27.6252 3.33433 27.2911 3.49241 26.8901C3.71371 26.3555 3.96664 25.7875 4.21956 25.2195L4.25117 25.1526C6.43262 20.1741 8.77214 15.0953 11.2065 10.1502L11.3013 9.94969C11.5543 9.4485 11.8072 8.91389 12.0601 8.41269C12.313 7.87809 12.5976 7.37689 12.9453 6.94252C13.6093 6.14061 14.4945 5.70624 15.4745 5.70624C16.4546 5.70624 17.3398 6.14061 18.0038 6.94252C18.3515 7.37689 18.6361 7.87809 18.889 8.41269C19.1419 8.91389 19.3948 9.4485 19.6477 9.94969L19.7426 10.1502C22.1453 15.1287 24.4849 20.2075 26.6663 25.186V25.2195C26.9192 25.7541 27.1405 26.3555 27.3934 26.8901C27.5515 27.2911 27.7096 27.6252 27.8044 27.9593C28.0574 28.8281 28.1522 29.6634 28.0257 30.5321Z" fill="#1D252D"></path></g><defs><clipPath id="clip0_643_23824"><rect width="101.067" height="40.0556" fill="white" transform="translate(0.742188 0.163086)"></rect></clipPath></defs></svg> 