<?xml version="1.0" encoding="UTF-8"?> <svg xmlns="http://www.w3.org/2000/svg" width="130" height="27" viewBox="0 0 130 27" fill="none"><g clip-path="url(#clip0_643_23826)"><path d="M0.5 1.69873H26.1411C26.1411 9.47781 26.1411 17.2854 26.1411 25.0645H0.5V1.69873ZM2.38632 5.37456C3.53729 10.1047 4.56038 14.8918 5.64741 19.6505C5.83924 20.2204 5.71136 20.9612 6.35079 21.3601C7.46979 21.5311 8.62076 21.4741 9.73977 21.4171C10.3472 21.4456 10.5071 20.7902 10.603 20.3628C11.3703 16.9719 12.2016 13.6096 12.9689 10.2187C13.0328 9.90523 13.1287 9.59179 13.2886 9.30684C14.2477 12.9542 15.047 16.6015 15.9103 20.2488C16.0382 20.6478 16.0701 21.1037 16.4858 21.3601C17.7007 21.5026 18.9476 21.5026 20.1625 21.3601C20.6101 21.1322 20.6101 20.6478 20.738 20.2488C21.857 15.2908 22.912 10.3042 24.095 5.34607C23.0079 5.34607 21.9529 5.34607 20.8658 5.34607C20.0026 9.67728 19.3312 14.0085 18.3721 18.3112C17.317 14.6639 16.5817 10.931 15.6545 7.22672C15.4307 6.59984 15.5266 5.688 14.7593 5.34607C13.8001 5.28908 12.873 5.28908 11.9138 5.34607C11.3703 5.37456 11.2424 5.94446 11.1465 6.31489C10.4112 10.0192 9.51596 13.6665 8.68471 17.3139C8.58879 17.6558 8.46091 17.9693 8.33302 18.3112C7.46979 14.0085 6.6705 9.67728 5.90318 5.37456C4.72024 5.37456 3.56926 5.37456 2.38632 5.37456Z" fill="#1D252D"></path><path d="M51.5904 1.69873H77.2316C77.2316 9.47781 77.2316 17.2854 77.2316 25.0645H51.5904C51.5904 17.2854 51.5904 9.47781 51.5904 1.69873ZM57.3773 5.37456C57.3773 10.7316 57.3773 16.0601 57.3773 21.3886C58.5602 21.3886 59.7432 21.3886 60.9261 21.3886C60.9261 19.3085 60.9261 17.1999 60.9261 15.1198C62.8444 15.1198 64.7947 15.1198 66.713 15.1198C67.4163 15.0628 68.2476 15.5187 68.2476 16.2026C68.3435 17.9408 68.5034 19.6505 68.6313 21.3886C69.7503 21.3886 70.9012 21.3886 72.0202 21.3886C71.7005 19.4225 72.0842 17.3994 71.4767 15.4902C71.157 14.4929 69.9101 14.2649 68.951 14.0085C69.6863 13.6665 70.6135 13.6381 71.125 13.0112C71.8923 12.1563 71.9563 11.0165 71.9563 9.96222C71.9563 8.73695 71.9883 7.39769 71.0931 6.37188C70.3897 5.51703 69.0789 5.40305 67.9918 5.40305C64.411 5.37456 60.8941 5.37456 57.3773 5.37456Z" fill="#1D252D"></path><path d="M102.745 1.69873H128.706V25.0645H102.745C102.745 17.2854 102.745 9.47781 102.745 1.69873ZM108.532 5.37456C108.532 10.7316 108.532 16.0601 108.532 21.3886C111.537 21.3886 114.51 21.3886 117.484 21.3886C119.338 21.3601 121.48 21.0467 122.567 19.5935C123.878 17.7413 123.654 15.4902 123.91 13.4101C123.686 11.33 123.878 9.05039 122.567 7.19823C121.544 5.83048 119.562 5.46004 117.835 5.40305C114.734 5.34607 111.633 5.37456 108.532 5.37456Z" fill="#1D252D"></path><path d="M32.6633 5.2036C36.7877 5.2036 40.912 5.2036 45.0683 5.2036C45.0683 6.17242 45.0683 7.11275 45.0683 8.08157C43.5976 8.08157 42.1589 8.08157 40.6882 8.08157C40.6882 11.6149 40.6882 15.1483 40.6882 18.6816C42.1589 18.6816 43.5976 18.6816 45.0683 18.6816C45.0683 19.622 45.0683 20.5908 45.0683 21.5596C40.944 21.5596 36.8196 21.5596 32.6633 21.5596C32.6314 20.5908 32.6314 19.6505 32.6633 18.6816C34.134 18.6816 35.5727 18.6816 37.0434 18.6816C37.0434 15.1483 37.0434 11.6149 37.0434 8.08157C35.5727 8.08157 34.134 8.08157 32.6633 8.08157C32.6633 7.11275 32.6633 6.17242 32.6633 5.2036Z" fill="#1D252D"></path><path d="M81.8035 5.2036C86.855 5.17511 91.9385 5.17511 96.99 5.2036C96.99 6.97028 96.99 8.73696 96.99 10.5321C95.903 10.5321 94.784 10.5321 93.6969 10.5321C93.6969 9.70578 93.6969 8.90793 93.6969 8.08158C91.7147 8.08158 89.7325 8.08158 87.7502 8.08158C87.7502 9.30685 87.7502 10.5321 87.7502 11.7574C89.3488 11.7574 90.9474 11.7574 92.546 11.7574C92.546 12.6692 92.546 13.5811 92.546 14.4929C90.9474 14.4929 89.3488 14.4929 87.7502 14.4929C87.7502 15.8892 87.7502 17.2854 87.7502 18.6816C89.7964 18.6531 91.8106 18.6816 93.8568 18.6816C93.8568 17.7413 93.8568 16.8295 93.8568 15.8892C94.9758 15.8892 96.0948 15.8892 97.2138 15.8892C97.2138 17.7698 97.2138 19.679 97.2138 21.5596C92.0664 21.5596 86.951 21.5596 81.8035 21.5596C81.7716 20.5908 81.8035 19.6505 81.8035 18.6816C82.6348 18.6816 83.4341 18.6816 84.2334 18.6816C84.2334 15.1483 84.2334 11.6149 84.2334 8.08158C83.4341 8.08158 82.6028 8.08158 81.8035 8.08158C81.8035 7.11275 81.8035 6.17242 81.8035 5.2036Z" fill="#1D252D"></path><path d="M60.9262 7.99608C63.1962 8.02457 65.4982 7.93909 67.7681 8.02457C68.6633 8.56597 68.4715 9.70576 68.5035 10.5321C68.4715 11.3015 68.4395 12.5268 67.2886 12.5837C65.1784 12.6692 63.0364 12.5837 60.8943 12.6122C60.9262 11.102 60.9262 9.5348 60.9262 7.99608Z" fill="#1D252D"></path><path d="M112.081 7.99608C113.999 7.99608 115.949 7.99608 117.867 7.99608C118.731 7.99608 119.722 8.36651 119.977 9.13587C120.585 10.6746 120.329 12.3558 120.393 13.9515C120.329 15.2338 120.489 16.573 119.882 17.7698C119.466 18.5392 118.411 18.7386 117.548 18.7386C115.725 18.7386 113.903 18.7386 112.081 18.7386C112.081 15.1768 112.081 11.5864 112.081 7.99608Z" fill="#1D252D"></path></g><defs><clipPath id="clip0_643_23826"><rect width="128.518" height="26.7037" fill="white" transform="translate(0.5 0.0297852)"></rect></clipPath></defs></svg> 