<?xml version="1.0" encoding="UTF-8"?> <svg xmlns="http://www.w3.org/2000/svg" width="152" height="28" viewBox="0 0 152 28" fill="none"><g clip-path="url(#clip0_643_23828)"><path d="M95.9822 20.8551C92.3107 20.8551 90.3428 17.9698 90.3428 14.0986C90.3428 9.88491 92.673 7.34215 95.992 7.34215C99.0271 7.34215 100.231 8.73289 101.083 11.203L97.9795 12.4796C97.5389 11.2653 97.1179 10.4972 95.9822 10.4972C94.5528 10.4972 93.936 12.0125 93.936 14.0882C93.936 16.0913 94.5332 17.6792 96.0214 17.6792C97.0983 17.6792 97.5585 17.0565 98.2243 15.8215L101.122 17.4509C100.3 19.1841 98.9194 20.8551 95.9822 20.8551Z" fill="#1D252D"></path><path d="M108.945 14.5242C108.544 14.0572 108.083 13.7043 107.467 13.7043C106.693 13.7043 106.213 14.0987 106.213 15.2922V20.6476H103.032V10.8191H106.213V11.5352C106.762 10.9747 107.379 10.6219 108.191 10.6219C108.867 10.6219 109.317 10.7879 109.689 11.037L108.945 14.5242Z" fill="#1D252D"></path><path d="M116.503 20.6475V19.9937C115.936 20.4607 115.27 20.8551 114.193 20.8551C112.156 20.8551 111.187 19.4125 111.187 16.8282V10.819H114.389V16.4027C114.389 17.6793 114.79 18.0114 115.446 18.0114C116.102 18.0114 116.503 17.6793 116.503 16.4338V10.819H119.705V20.6475H116.503Z" fill="#1D252D"></path><path d="M127.312 20.6474V15.0637C127.312 13.7871 126.911 13.455 126.255 13.455C125.579 13.455 125.178 13.7871 125.178 15.0326V20.6474H121.996V10.8188H125.178V11.4727C125.765 11.0057 126.412 10.6113 127.508 10.6113C129.545 10.6113 130.514 12.0539 130.514 14.6382V20.6474H127.312Z" fill="#1D252D"></path><path d="M136.711 20.855C133.99 20.855 132.364 19.0179 132.364 15.7072C132.364 12.687 133.813 10.6113 136.78 10.6113C138.532 10.6113 139.531 11.4727 140.344 12.8531L138.151 14.6174C137.71 13.756 137.407 13.3408 136.721 13.3408C135.909 13.3408 135.497 14.2023 135.497 15.7591C135.497 17.3159 135.938 18.115 136.809 18.115C137.407 18.115 137.837 17.7621 138.415 16.8384L140.432 18.5094C139.355 20.1907 138.356 20.855 136.711 20.855Z" fill="#1D252D"></path><path d="M147.55 20.6475V15.0638C147.55 13.7872 147.148 13.4551 146.492 13.4551C145.817 13.4551 145.415 13.7872 145.415 15.0327V20.6475H142.233V8.33848L145.415 6.98926V11.4728C146.003 11.0058 146.649 10.6114 147.745 10.6114C149.782 10.6114 150.751 12.054 150.751 14.6383V20.6475H147.55Z" fill="#1D252D"></path><path d="M56.957 10.705V20.6477H53.5302V10.705H50.0643V7.53952H60.4131V10.705H56.957Z" fill="#1D252D"></path><path d="M68.4218 16.6937H62.9782C63.0859 17.7834 63.6832 18.2609 64.5545 18.2609C65.3671 18.2609 66.0427 18.074 66.9532 17.5655L68.1673 19.7242C67.0218 20.4404 65.8371 20.8451 64.3881 20.8451C61.5977 20.8451 60.0606 18.7487 60.0606 15.7285C60.0606 12.3347 61.8621 10.6014 64.3 10.6014C66.8455 10.6014 68.4316 12.3762 68.4316 16.0295C68.4316 16.3201 68.4316 16.5276 68.4218 16.6937ZM64.2119 13.1027C63.4873 13.1027 63.0859 13.632 62.9782 14.5972H65.6315C65.4651 13.6009 65.1518 13.1027 64.2119 13.1027Z" fill="#1D252D"></path><path d="M74.3354 20.8553C71.6136 20.8553 69.9883 19.0182 69.9883 15.7075C69.9883 12.6873 71.4374 10.6116 74.4039 10.6116C76.1565 10.6116 77.1551 11.473 77.9677 12.8534L75.7746 14.6177C75.334 13.7563 75.0305 13.3412 74.3452 13.3412C73.5326 13.3412 73.1214 14.2026 73.1214 15.7594C73.1214 17.3162 73.5619 18.1153 74.4333 18.1153C75.0305 18.1153 75.4613 17.7624 76.039 16.8387L78.0558 18.5097C76.9789 20.191 75.9802 20.8553 74.3354 20.8553Z" fill="#1D252D"></path><path d="M85.1736 20.6478V15.0641C85.1736 13.7876 84.7722 13.4554 84.1162 13.4554C83.4407 13.4554 83.0393 13.7875 83.0393 15.033V20.6478H79.8573V8.33878L83.0393 6.98956V11.4731C83.6267 11.0061 84.2729 10.6117 85.3694 10.6117C87.4059 10.6117 88.3752 12.0543 88.3752 14.6386V20.6478H85.1736Z" fill="#1D252D"></path><path d="M0.464844 1.9248V9.41816H7.5337V24.3945H14.5928V9.41816H21.6616V1.9248H0.464844Z" fill="#1D252D"></path><path d="M28.7207 16.9012V9.41823L21.6616 9.41816L21.6616 24.3945H42.8486V16.9012H28.7207Z" fill="#1D252D"></path><path d="M42.8486 1.9248H28.7207L28.7207 9.41823L42.8486 9.41816V1.9248Z" fill="#1D252D"></path></g><defs><clipPath id="clip0_643_23828"><rect width="150.548" height="26.7695" fill="white" transform="translate(0.464844 0.251465)"></rect></clipPath></defs></svg> 