<?xml version="1.0" encoding="UTF-8"?> <svg xmlns="http://www.w3.org/2000/svg" width="150" height="153" viewBox="0 0 150 153" fill="none"><path d="M57.8999 30.666C74.8551 47.6024 75 76.1509 75 76.1509C75 76.1509 47.6552 77.2401 30.7 60.3037C13.7449 43.3673 13.5999 14.8188 13.5999 14.8188C13.5999 14.8188 40.9447 13.7296 57.8999 30.666Z" fill="#DC6761"></path><path d="M92.1001 30.666C75.1449 47.6024 75 76.1509 75 76.1509C75 76.1509 102.345 77.2401 119.3 60.3037C136.255 43.3673 136.4 14.8188 136.4 14.8188C136.4 14.8188 109.055 13.7296 92.1001 30.666Z" fill="#DC6761"></path><path d="M57.8999 121.612C74.8551 104.676 75 76.1272 75 76.1272C75 76.1272 47.6552 75.038 30.7 91.9744C13.7449 108.911 13.5999 137.459 13.5999 137.459C13.5999 137.459 40.9447 138.548 57.8999 121.612Z" fill="#DC6761"></path><path d="M92.1001 121.612C75.1449 104.676 75 76.1272 75 76.1272C75 76.1272 102.345 75.038 119.3 91.9744C136.255 108.911 136.4 137.459 136.4 137.459C136.4 137.459 109.055 138.548 92.1001 121.612Z" fill="#DC6761"></path></svg> 