<?xml version="1.0" encoding="UTF-8"?> <svg xmlns="http://www.w3.org/2000/svg" width="150" height="150" viewBox="0 0 150 150" fill="none"><path d="M54.1514 19.6549C74.6943 40.175 74.8699 74.7644 74.8699 74.7644C74.8699 74.7644 41.739 76.0841 21.1961 55.564C0.653268 35.0439 0.47766 0.454546 0.47766 0.454546C0.47766 0.454546 33.6086 -0.865154 54.1514 19.6549Z" fill="#DC6761"></path><path d="M95.5888 19.6549C75.046 40.175 74.8703 74.7644 74.8703 74.7644C74.8703 74.7644 108.001 76.0841 128.544 55.564C149.087 35.0439 149.263 0.454538 149.263 0.454538C149.263 0.454538 116.132 -0.865162 95.5888 19.6549Z" fill="#DC6761"></path><path d="M54.1514 129.845C74.6943 109.325 74.8699 74.7356 74.8699 74.7356C74.8699 74.7356 41.739 73.4159 21.1961 93.936C0.653268 114.456 0.47766 149.045 0.47766 149.045C0.47766 149.045 33.6086 150.365 54.1514 129.845Z" fill="#DC6761"></path><path d="M95.5888 129.845C75.046 109.325 74.8703 74.7356 74.8703 74.7356C74.8703 74.7356 108.001 73.4159 128.544 93.936C149.087 114.456 149.263 149.045 149.263 149.045C149.263 149.045 116.132 150.365 95.5888 129.845Z" fill="#DC6761"></path></svg> 