<?xml version="1.0" encoding="UTF-8"?> <svg xmlns="http://www.w3.org/2000/svg" width="40" height="40" viewBox="0 0 40 40" fill="none"><path d="M34.9108 13.8417C34.894 12.5794 34.6577 11.3297 34.2125 10.1484C33.8264 9.15197 33.2367 8.24705 32.4811 7.49143C31.7255 6.73582 30.8206 6.14614 29.8241 5.76005C28.658 5.32231 27.4261 5.08562 26.1808 5.06005C24.5775 4.98838 24.0691 4.96838 19.9991 4.96838C15.9291 4.96838 15.4075 4.96838 13.8158 5.06005C12.5711 5.08581 11.3397 5.3225 10.1741 5.76005C9.17757 6.14587 8.27251 6.73546 7.51686 7.49111C6.76122 8.24675 6.17162 9.15181 5.78581 10.1484C5.34719 11.3136 5.11101 12.5452 5.08747 13.7901C5.01581 15.3951 4.99414 15.9034 4.99414 19.9734C4.99414 24.0434 4.99414 24.5634 5.08747 26.1567C5.11247 27.4034 5.34747 28.6334 5.78581 29.8017C6.17227 30.798 6.7623 31.7027 7.5182 32.458C8.2741 33.2133 9.17925 33.8027 10.1758 34.1884C11.3382 34.6437 12.5698 34.8973 13.8175 34.9384C15.4225 35.01 15.9308 35.0317 20.0008 35.0317C24.0708 35.0317 24.5925 35.0317 26.1841 34.9384C27.4294 34.9139 28.6614 34.6777 29.8275 34.24C30.8236 33.8535 31.7283 33.2637 32.4839 32.5081C33.2394 31.7526 33.8293 30.8479 34.2158 29.8517C34.6541 28.685 34.8891 27.455 34.9141 26.2067C34.9858 24.6034 35.0075 24.0951 35.0075 20.0234C35.0041 15.9534 35.0041 15.4367 34.9108 13.8417ZM19.9891 27.67C15.7325 27.67 12.2841 24.2217 12.2841 19.9651C12.2841 15.7084 15.7325 12.2601 19.9891 12.2601C22.0326 12.2601 23.9924 13.0718 25.4374 14.5168C26.8824 15.9618 27.6941 17.9216 27.6941 19.9651C27.6941 22.0085 26.8824 23.9683 25.4374 25.4133C23.9924 26.8583 22.0326 27.67 19.9891 27.67ZM28.0008 13.7717C27.7648 13.7719 27.5311 13.7256 27.313 13.6354C27.0949 13.5452 26.8968 13.4129 26.7299 13.246C26.563 13.0791 26.4307 12.8809 26.3405 12.6629C26.2502 12.4448 26.2039 12.2111 26.2041 11.9751C26.2041 11.7392 26.2506 11.5057 26.3408 11.2878C26.4311 11.0699 26.5634 10.872 26.7301 10.7052C26.8969 10.5384 27.0949 10.4062 27.3127 10.3159C27.5306 10.2257 27.7641 10.1792 28 10.1792C28.2358 10.1792 28.4693 10.2257 28.6872 10.3159C28.9051 10.4062 29.1031 10.5384 29.2698 10.7052C29.4366 10.872 29.5689 11.0699 29.6591 11.2878C29.7494 11.5057 29.7958 11.7392 29.7958 11.9751C29.7958 12.9684 28.9925 13.7717 28.0008 13.7717Z" fill="white"></path><path d="M19.9894 24.97C22.7536 24.97 24.9944 22.7291 24.9944 19.965C24.9944 17.2008 22.7536 14.96 19.9894 14.96C17.2252 14.96 14.9844 17.2008 14.9844 19.965C14.9844 22.7291 17.2252 24.97 19.9894 24.97Z" fill="white"></path></svg> 